<svg version="1.1" id="Layer_1" xmlns="http://www.w3.org/2000/svg" xmlns:xlink="http://www.w3.org/1999/xlink" x="0px" y="0px"
	 width="100%" viewBox="0 0 500 500" enableBackground="new 0 0 500 500" xml:space="preserve">
<path fill="#5271FF" opacity="1.000000" stroke="none" 
	d="
M272.265808,342.804260 
	C264.038605,344.027893 256.233490,346.103302 248.188385,345.983032 
	C228.499252,345.688751 210.486038,340.044891 193.825836,329.479645 
	C187.317245,325.352173 182.351181,319.791656 177.009598,314.510223 
	C162.377335,300.042755 155.162796,282.044922 151.987564,262.104034 
	C149.623871,247.259766 150.582367,232.576538 155.135696,218.325699 
	C157.653320,210.446121 161.217224,202.942596 165.532516,195.712234 
	C170.463455,187.450378 176.889206,180.500870 183.720352,174.189224 
	C191.362930,167.127899 200.807358,162.275101 210.412643,157.954453 
	C226.045929,150.922272 242.557312,150.025787 259.175995,151.150131 
	C271.743927,152.000427 283.678131,156.203064 294.616730,162.397995 
	C302.661499,166.954086 310.692810,171.729996 317.582916,178.067215 
	C319.046326,179.413147 320.876099,180.832947 319.812012,183.084396 
	C318.906952,184.999329 316.840637,183.947662 315.342560,183.952408 
	C293.345947,184.021942 271.348877,184.060638 249.352325,183.985046 
	C221.079514,183.887878 196.727554,200.134720 187.533752,227.220840 
	C180.926147,246.687714 182.952393,265.728180 195.129349,282.951416 
	C195.776337,283.866516 194.527634,284.881897 195.907104,285.595642 
	C205.844757,303.067017 220.049744,314.538757 239.614395,318.641968 
	C248.291718,320.461792 257.124664,320.222168 265.856720,318.589478 
	C272.062317,317.429199 273.406921,318.283936 273.311707,324.681793 
	C273.223267,330.624634 274.218842,336.631439 272.265808,342.804260 
z"/>
<path fill="#000000" opacity="1.000000" stroke="none" 
	d="
M342.593018,222.649506 
	C344.708252,232.318787 346.609711,241.620026 345.984406,251.173737 
	C344.660217,271.404724 338.761780,289.952393 326.358704,306.339203 
	C322.770905,311.079315 317.696594,314.400696 314.704803,319.615387 
	C314.347443,320.238251 313.026672,320.308380 311.999420,320.691833 
	C311.999420,295.480194 311.915344,270.508179 312.091766,245.537964 
	C312.117706,241.872253 311.338226,240.828857 307.527771,240.895966 
	C292.876160,241.154068 278.217255,240.990967 263.561096,241.004028 
	C254.152145,241.012421 248.950943,246.062057 249.043457,255.349640 
	C249.084351,259.454071 247.218445,264.881836 249.827972,267.277618 
	C252.031204,269.300293 257.385498,267.947815 261.346069,267.985657 
	C267.007874,268.039764 272.670563,267.999451 279.012848,267.999451 
	C273.104401,278.087952 264.122589,283.712433 253.577377,284.694763 
	C238.712555,286.079407 224.756622,283.093170 216.967468,267.505280 
	C209.495056,252.883606 222.444016,228.366180 240.501816,223.174896 
	C246.456741,221.462952 252.556107,220.547287 258.749512,220.535248 
	C283.914612,220.486389 309.079926,220.498444 334.245056,220.536453 
	C337.038330,220.540665 339.971100,220.163879 342.593018,222.649506 
z"/>
<path fill="#DADADA" opacity="1.000000" stroke="none" 
	d="
M342.986664,222.702454 
	C340.785492,222.372864 338.713318,222.005966 336.509918,222.010208 
	C309.910004,222.061462 283.309021,221.909821 256.710327,222.096680 
	C242.152328,222.198944 229.602036,226.942337 221.670959,240.033447 
	C216.796936,248.078552 215.057220,256.892731 216.943085,266.695923 
	C213.219574,263.509583 212.470551,258.776581 211.982544,253.526077 
	C211.833679,252.928726 211.696808,252.746658 211.351227,252.294067 
	C211.087280,249.306503 211.032043,246.589478 211.046371,243.424210 
	C211.263306,242.796417 211.410660,242.616882 211.759155,242.152863 
	C212.693390,227.835785 227.812851,212.308456 241.459778,211.978027 
	C242.058472,211.827667 242.247635,211.692978 242.709595,211.341736 
	C278.308167,211.084045 313.633942,211.035889 348.959717,211.038086 
	C349.955963,211.038147 351.323761,210.319839 351.931885,211.934586 
	C352.681244,213.924316 350.733490,213.821472 349.927368,214.630020 
	C347.497650,217.067215 344.732361,219.216629 342.986664,222.702454 
z"/>
<path fill="#4461EA" opacity="1.000000" stroke="none" 
	d="
M271.994446,343.458038 
	C271.976868,336.436432 271.910248,329.774567 272.020935,323.115631 
	C272.073517,319.952942 271.513794,318.732513 267.732544,319.498688 
	C238.661499,325.389191 215.757828,315.787201 198.681732,293.000336 
	C197.312805,291.173615 196.100891,289.100922 196.018066,286.264313 
	C199.802048,287.376007 201.118164,291.341675 203.758621,293.977966 
	C215.187119,305.388672 228.685791,311.185272 244.661972,312.013885 
	C258.604767,312.737091 271.423462,309.442322 283.283264,301.740570 
	C284.480530,303.544159 283.984070,305.227356 283.988220,306.774017 
	C284.025879,320.744385 283.984497,334.714935 284.009430,348.685364 
	C284.014130,351.320709 283.478973,353.593628 280.581146,351.029999 
	C277.780914,348.552704 273.923004,347.325958 271.994446,343.458038 
z"/>
<path fill="#E7E7E7" opacity="1.000000" stroke="none" 
	d="
M242.708313,211.089447 
	C242.862640,211.446869 242.644958,211.675278 242.099335,211.886383 
	C242.057602,211.659485 242.245911,211.356598 242.708313,211.089447 
z"/>
<path fill="#ECECEC" opacity="1.000000" stroke="none" 
	d="
M211.694611,241.947021 
	C211.902054,242.197556 211.762436,242.487564 211.328690,242.857178 
	C211.220245,242.659195 211.324554,242.342422 211.694611,241.947021 
z"/>
<path fill="#ECECEC" opacity="1.000000" stroke="none" 
	d="
M211.111633,252.291718 
	C211.453308,252.145935 211.673569,252.361038 211.886932,252.889816 
	C211.673965,252.927170 211.377350,252.743546 211.111633,252.291718 
z"/>
</svg>