<svg fill="none" height="512" viewBox="0 0 24 24" width="512" xmlns="http://www.w3.org/2000/svg"><path clipRule="evenodd" d="m3 10.4c0-2.24021 0-3.36031.43597-4.21596.3835-.75265.99542-1.36457 1.74807-1.74807.85565-.43597 1.97575-.43597 4.21596-.43597h5.2c2.2402 0 3.3603 0 4.216.43597.7526.3835 1.3645.99542 1.748 1.74807.436.85565.436 1.97575.436 4.21596v1.2c0 2.2402 0 3.3603-.436 4.216-.3835.7526-.9954 1.3645-1.748 1.748-.8557.436-1.9758.436-4.216.436h-7.18579c-.26521 0-.51957.1054-.7071.2929l-2 2c-.62997.63-1.70711.1838-1.70711-.7071v-1.5858-5zm6-2.4c-.55228 0-1 .44772-1 1s.44772 1 1 1h6c.5523 0 1-.44772 1-1s-.4477-1-1-1zm0 4c-.55228 0-1 .4477-1 1s.44772 1 1 1h3c.5523 0 1-.4477 1-1s-.4477-1-1-1z" fill="rgb(0,0,0)" fillRule="evenodd"/></svg>