<svg height="512" viewBox="0 0 24 24" width="512" xmlns="http://www.w3.org/2000/svg"><g id="_01" data-name="01"><path d="m11.375 8a2.375 2.375 0 1 1 -2.375-2.375 2.377 2.377 0 0 1 2.375 2.375zm10.625-.19v8.38c0 3.64-2.17 5.81-5.81 5.81h-8.38c-2.55 0-4.39-1.07-5.25-2.97a5.732 5.732 0 0 1 -.31-.885c-.01-.041-.021-.081-.031-.122a7.513 7.513 0 0 1 -.219-1.833v-8.38c0-3.64 2.17-5.81 5.81-5.81h8.38c3.64 0 5.81 2.17 5.81 5.81zm-1.5 0c0-2.82-1.49-4.31-4.31-4.31h-8.38c-2.82 0-4.31 1.49-4.31 4.31v8.38a5.411 5.411 0 0 0 .346 1.971l3.744-2.511a2.221 2.221 0 0 1 2.64.14l.34.28a2.229 2.229 0 0 0 2.82 0l4.16-3.57a2.229 2.229 0 0 1 2.82 0l.13.112z"/></g></svg>