<svg height="512" viewBox="0 0 24 24" width="512" xmlns="http://www.w3.org/2000/svg"><g id="_01" data-name="01"><path d="m15 1.25h-6c-5.433 0-7.75 2.318-7.75 7.75v6c0 5.432 2.317 7.75 7.75 7.75h6c5.433 0 7.75-2.318 7.75-7.75v-6c0-5.432-2.317-7.75-7.75-7.75zm6.25 13.75c0 4.614-1.636 6.25-6.25 6.25h-6c-2.757 0-4.444-.591-5.361-2.045l4.373-2.934a1.492 1.492 0 0 1 1.733.084l.333.286a2.976 2.976 0 0 0 3.8 0l4.161-3.57a1.482 1.482 0 0 1 1.846 0l1.367 1.173zm0-2.733-.391-.335a2.976 2.976 0 0 0 -3.8 0l-4.159 3.568a1.482 1.482 0 0 1 -1.844 0l-.333-.286a2.982 2.982 0 0 0 -3.546-.191l-4.129 2.777a11.2 11.2 0 0 1 -.3-2.8v-6c.002-4.614 1.638-6.25 6.252-6.25h6c4.614 0 6.25 1.636 6.25 6.25zm-12.25-7.017a2.75 2.75 0 1 0 2.75 2.75 2.752 2.752 0 0 0 -2.75-2.75zm0 4a1.25 1.25 0 1 1 1.25-1.25 1.252 1.252 0 0 1 -1.25 1.25z"/></g></svg>