<svg id="visual" viewBox="0 0 900 600" width="900" height="600" xmlns="http://www.w3.org/2000/svg" xmlns:xlink="http://www.w3.org/1999/xlink" version="1.1"><path d="M0 117L15 125.3C30 133.7 60 150.3 90 157.7C120 165 150 163 180 156.5C210 150 240 139 270 146.3C300 153.7 330 179.3 360 179.5C390 179.7 420 154.3 450 154.2C480 154 510 179 540 194.8C570 210.7 600 217.3 630 217C660 216.7 690 209.3 720 195.7C750 182 780 162 810 163.2C840 164.3 870 186.7 885 197.8L900 209L900 0L885 0C870 0 840 0 810 0C780 0 750 0 720 0C690 0 660 0 630 0C600 0 570 0 540 0C510 0 480 0 450 0C420 0 390 0 360 0C330 0 300 0 270 0C240 0 210 0 180 0C150 0 120 0 90 0C60 0 30 0 15 0L0 0Z" fill="#4621ff" stroke-linecap="round" strokeLinejoin="miter"></path></svg>