<svg id="visual" viewBox="0 0 900 600" width="900" height="600" xmlns="http://www.w3.org/2000/svg" xmlns:xlink="http://www.w3.org/1999/xlink" version="1.1"><path d="M0 196L15 209.8C30 223.7 60 251.3 90 263.5C120 275.7 150 272.3 180 261.5C210 250.7 240 232.3 270 244.5C300 256.7 330 299.3 360 299.7C390 300 420 258 450 257.8C480 257.7 510 299.3 540 325.7C570 352 600 363 630 362.5C660 362 690 350 720 327.3C750 304.7 780 271.3 810 273.2C840 275 870 312 885 330.5L900 349L900 0L885 0C870 0 840 0 810 0C780 0 750 0 720 0C690 0 660 0 630 0C600 0 570 0 540 0C510 0 480 0 450 0C420 0 390 0 360 0C330 0 300 0 270 0C240 0 210 0 180 0C150 0 120 0 90 0C60 0 30 0 15 0L0 0Z" fill="#4621ff" stroke-linecap="round" stroke-linejoin="miter"></path></svg>